<?xml version="1.0" encoding="UTF-8" standalone="no"?>
<svg
   xmlns:dc="http://purl.org/dc/elements/1.1/"
   xmlns:cc="http://creativecommons.org/ns#"
   xmlns:rdf="http://www.w3.org/1999/02/22-rdf-syntax-ns#"
   xmlns:svg="http://www.w3.org/2000/svg"
   xmlns="http://www.w3.org/2000/svg"
   viewBox="0 0 378.66666 409.77332"
   height="409.77332"
   width="378.66666"
   xml:space="preserve"
   id="svg2"
   version="1.1"><metadata
     id="metadata8"><rdf:RDF><cc:Work
         rdf:about=""><dc:format>image/svg+xml</dc:format><dc:type
           rdf:resource="http://purl.org/dc/dcmitype/StillImage" /></cc:Work></rdf:RDF></metadata><defs
     id="defs6" /><g
     transform="matrix(1.3333333,0,0,-1.3333333,0,409.77333)"
     id="g10"><g
       transform="scale(0.1)"
       id="g12"><path
         id="path14"
         style="fill:#231f20;fill-opacity:1;fill-rule:nonzero;stroke:none"
         d="M 2840,113.379 C 2840,50.7695 2789.24,0 2726.61,0 H 113.379 C 50.7617,0 0,50.7695 0,113.379 V 2959.94 c 0,62.63 50.7617,113.39 113.379,113.39 H 2726.61 c 62.63,0 113.39,-50.76 113.39,-113.39 V 113.379" /><path
         id="path16"
         style="fill:#fff200;fill-opacity:1;fill-rule:nonzero;stroke:none"
         d="m 306.156,740.082 c -13.429,-16.141 -21.515,-36.902 -21.515,-59.551 0,-51.441 41.699,-93.133 93.136,-93.133 H 2457.77 c 51.45,0 93.14,41.692 93.14,93.133 V 2760.54 c 0,51.43 -41.69,93.13 -93.14,93.13 -22.37,0 -42.9,-7.89 -58.95,-21.03 L 306.156,740.082" /><path
         id="path18"
         style="fill:#231f20;fill-opacity:1;fill-rule:nonzero;stroke:none"
         d="m 1339.5,1222.82 c -8.1,-3.42 -16.29,-5.13 -24.56,-5.13 -13.04,0 -24.75,2.27 -35.16,6.79 -10.42,4.53 -19.2,10.76 -26.35,18.7 -7.16,7.95 -12.64,17.27 -16.46,28 -3.82,10.72 -5.72,22.27 -5.72,34.65 0,12.72 1.91,24.51 5.73,35.39 3.82,10.87 9.32,20.37 16.48,28.47 7.17,8.1 15.96,14.46 26.37,19.06 10.42,4.6 22.14,6.91 35.18,6.91 8.74,0 17.21,-1.31 25.39,-3.93 8.18,-2.61 15.58,-6.46 22.18,-11.54 6.59,-5.08 12.04,-11.35 16.33,-18.81 4.29,-7.46 6.91,-16.04 7.87,-25.74 h -35.76 c -2.23,9.53 -6.53,16.69 -12.89,21.46 -6.35,4.77 -14.06,7.15 -23.12,7.15 -8.43,0 -15.58,-1.63 -21.47,-4.88 -5.87,-3.26 -10.64,-7.63 -14.3,-13.11 -3.65,-5.47 -6.32,-11.71 -7.99,-18.7 -1.67,-6.99 -2.5,-14.22 -2.5,-21.68 0,-7.14 0.83,-14.1 2.5,-20.85 1.67,-6.74 4.33,-12.82 7.98,-18.22 3.65,-5.4 8.42,-9.73 14.3,-12.99 5.87,-3.26 13.02,-4.88 21.44,-4.88 12.38,0 21.95,3.13 28.7,9.38 6.75,6.25 10.69,15.31 11.8,27.18 h -37.68 v 27.97 h 71.59 v -91.95 h -23.88 l -3.82,19.31 c -6.68,-8.59 -14.07,-14.59 -22.18,-18.01" /><path
         id="path20"
         style="fill:#231f20;fill-opacity:1;fill-rule:nonzero;stroke:none"
         d="m 1501.92,1287.22 -21.46,62.55 h -0.48 l -22.18,-62.55 z m -2.14,104.53 63.66,-170.31 h -38.87 l -12.88,37.81 h -63.66 l -13.35,-37.81 h -37.67 l 64.38,170.31 h 38.39" /><path
         id="path22"
         style="fill:#231f20;fill-opacity:1;fill-rule:nonzero;stroke:none"
         d="m 1602.17,1263.36 c 2.07,-3.97 4.8,-7.18 8.22,-9.65 3.42,-2.46 7.43,-4.29 12.04,-5.48 4.6,-1.19 9.37,-1.79 14.3,-1.79 3.33,0 6.91,0.27 10.72,0.83 3.81,0.56 7.38,1.63 10.72,3.22 3.34,1.59 6.12,3.77 8.34,6.56 2.23,2.78 3.34,6.31 3.34,10.6 0,4.61 -1.46,8.34 -4.41,11.21 -2.93,2.85 -6.79,5.24 -11.54,7.15 -4.77,1.9 -10.18,3.57 -16.21,5 -6.04,1.44 -12.15,3.03 -18.34,4.78 -6.35,1.58 -12.55,3.52 -18.59,5.83 -6.03,2.3 -11.43,5.29 -16.2,8.94 -4.77,3.65 -8.61,8.22 -11.55,13.71 -2.94,5.48 -4.41,12.11 -4.41,19.9 0,8.74 1.87,16.33 5.6,22.77 3.73,6.43 8.61,11.8 14.65,16.08 6.03,4.3 12.86,7.47 20.49,9.53 7.61,2.07 15.24,3.11 22.86,3.11 8.89,0 17.43,-1 25.6,-2.98 8.19,-1.98 15.45,-5.2 21.8,-9.65 6.35,-4.44 11.4,-10.12 15.13,-17.04 3.73,-6.9 5.59,-15.29 5.59,-25.15 h -36.25 c -0.31,5.09 -1.38,9.3 -3.21,12.64 -1.83,3.34 -4.24,5.97 -7.26,7.87 -3,1.91 -6.45,3.25 -10.34,4.06 -3.88,0.79 -8.12,1.19 -12.72,1.19 -3.01,0 -6.03,-0.33 -9.04,-0.96 -3.01,-0.64 -5.75,-1.75 -8.21,-3.34 -2.45,-1.58 -4.47,-3.57 -6.05,-5.96 -1.6,-2.38 -2.39,-5.41 -2.39,-9.06 0,-3.34 0.64,-6.04 1.91,-8.11 1.27,-2.07 3.77,-3.98 7.51,-5.73 3.73,-1.75 8.88,-3.49 15.48,-5.24 6.59,-1.75 15.2,-3.98 25.85,-6.68 3.17,-0.64 7.57,-1.79 13.22,-3.46 5.64,-1.67 11.24,-4.33 16.8,-7.99 5.55,-3.66 10.36,-8.54 14.41,-14.66 4.04,-6.13 6.07,-13.96 6.07,-23.5 0,-7.79 -1.51,-15.02 -4.53,-21.7 -3.02,-6.68 -7.51,-12.44 -13.46,-17.3 -5.97,-4.84 -13.35,-8.62 -22.18,-11.32 -8.82,-2.7 -19.03,-4.06 -30.63,-4.06 -9.38,0 -18.48,1.16 -27.3,3.47 -8.82,2.31 -16.61,5.93 -23.36,10.87 -6.76,4.93 -12.12,11.22 -16.1,18.86 -3.97,7.62 -5.87,16.69 -5.72,27.18 h 36.25 c 0,-5.72 1.04,-10.57 3.1,-14.55" /><path
         id="path24"
         style="fill:#231f20;fill-opacity:1;fill-rule:nonzero;stroke:none"
         d="m 914.965,821.801 c 5.605,-9.653 12.832,-17.539 21.68,-23.672 8.847,-6.129 19.023,-10.66 30.527,-13.578 11.504,-2.922 23.449,-4.379 35.838,-4.379 8.85,0 18.14,1.027 27.87,3.09 9.73,2.047 18.58,5.277 26.55,9.687 7.97,4.422 14.6,10.301 19.91,17.653 5.31,7.339 7.97,16.609 7.97,27.777 0,18.812 -12.51,32.91 -37.52,42.332 -25.01,9.398 -59.876,18.809 -104.591,28.219 -18.242,4.121 -36.047,8.98 -53.41,14.562 -17.363,5.59 -32.801,12.93 -46.336,22.039 -13.535,9.11 -24.426,20.578 -32.668,34.399 -8.242,13.82 -12.351,30.72 -12.351,50.71 0,29.39 5.722,53.51 17.187,72.32 11.465,18.81 26.602,33.66 45.41,44.54 18.809,10.87 39.961,18.51 63.477,22.92 23.504,4.42 47.605,6.63 72.293,6.63 24.679,0 48.619,-2.36 71.849,-7.06 23.21,-4.71 43.92,-12.66 62.15,-23.83 18.22,-11.18 33.36,-26.04 45.41,-44.57 12.05,-18.54 19.24,-41.93 21.6,-70.17 h -118.75 c -1.78,24.16 -10.91,40.51 -27.41,49.05 -16.51,8.55 -35.96,12.83 -58.365,12.83 -7.07,0 -14.734,-0.45 -22.988,-1.33 -8.262,-0.88 -15.77,-2.8 -22.547,-5.73 -6.777,-2.95 -12.531,-7.22 -17.246,-12.81 -4.719,-5.58 -7.07,-13.08 -7.07,-22.5 0,-11.18 4.109,-20.3 12.351,-27.36 8.242,-7.06 18.977,-12.79 32.219,-17.21 13.242,-4.41 28.387,-8.38 45.456,-11.911 17.07,-3.539 34.43,-7.359 52.08,-11.469 18.24,-4.121 36.04,-9.128 53.4,-15.011 17.36,-5.879 32.81,-13.668 46.35,-23.379 13.53,-9.699 24.41,-21.77 32.65,-36.192 8.25,-14.41 12.37,-32.207 12.37,-53.386 0,-30.012 -6.04,-55.16 -18.09,-75.453 -12.05,-20.297 -27.78,-36.629 -47.19,-48.977 -19.4,-12.363 -41.6,-21.031 -66.59,-26.031 -25,-5 -50.43,-7.5 -76.3,-7.5 -26.46,0 -52.331,2.64 -77.613,7.918 -25.293,5.281 -47.785,14.09 -67.48,26.41 -19.707,12.332 -35.879,28.621 -48.516,48.871 -12.636,20.25 -19.551,45.641 -20.722,76.172 h 118.75 c 0,-13.442 2.8,-24.981 8.406,-34.621" /><path
         id="path26"
         style="fill:#231f20;fill-opacity:1;fill-rule:nonzero;stroke:none"
         d="m 1530.02,920.832 c -7.97,-2.652 -16.52,-4.863 -25.66,-6.621 -9.15,-1.762 -18.73,-3.242 -28.77,-4.41 -10.02,-1.172 -20.06,-2.653 -30.08,-4.403 -9.44,-1.769 -18.73,-4.128 -27.87,-7.066 -9.14,-2.934 -17.11,-6.902 -23.89,-11.902 -6.79,-5 -12.26,-11.321 -16.38,-18.95 -4.14,-7.648 -6.19,-17.351 -6.19,-29.109 0,-11.172 2.05,-20.582 6.19,-28.223 4.12,-7.648 9.73,-13.668 16.81,-18.078 7.07,-4.422 15.33,-7.5 24.78,-9.261 9.44,-1.758 19.17,-2.637 29.2,-2.637 24.77,0 43.95,4.109 57.52,12.34 13.56,8.226 23.6,18.078 30.08,29.547 6.49,11.461 10.47,23.07 11.95,34.832 1.47,11.757 2.21,21.16 2.21,28.218 v 46.743 c -5.31,-4.711 -11.95,-8.391 -19.9,-11.02 z m -247.43,176.878 c 12.93,19.39 29.39,34.96 49.37,46.72 19.98,11.75 42.46,20.12 67.45,25.12 24.98,5 50.1,7.5 75.38,7.5 22.92,0 46.13,-1.63 69.64,-4.86 23.52,-3.24 44.98,-9.56 64.38,-18.97 19.39,-9.42 35.25,-22.5 47.6,-39.26 12.34,-16.77 18.51,-38.97 18.51,-66.61 V 810 c 0,-20.578 1.17,-40.289 3.54,-59.109 2.34,-18.821 6.46,-32.942 12.34,-42.352 l -127.05,0.383 c -2.36,7.008 -4.28,14.168 -5.74,21.476 -1.47,7.301 -2.5,14.762 -3.09,22.364 -20,-20.641 -43.51,-35.082 -70.56,-43.332 -27.06,-8.25 -54.71,-12.379 -82.93,-12.379 -21.75,0 -42.05,2.648 -60.87,7.937 -18.81,5.293 -35.28,13.532 -49.39,24.711 -14.12,11.172 -25.15,25.301 -33.09,42.36 -7.94,17.062 -11.9,37.363 -11.9,60.89 0,25.883 4.56,47.211 13.68,63.981 9.12,16.769 20.9,30.152 35.32,40.152 14.41,10 30.9,17.508 49.44,22.508 18.55,5 37.25,8.969 56.08,11.922 18.83,2.937 37.39,5.289 55.63,7.058 18.24,1.762 34.43,4.399 48.57,7.942 14.12,3.519 25.31,8.668 33.56,15.438 8.24,6.77 12.05,16.62 11.46,29.57 0,13.53 -2.21,24.27 -6.62,32.22 -4.41,7.93 -10.31,14.11 -17.67,18.52 -7.37,4.41 -15.92,7.35 -25.63,8.83 -9.73,1.46 -20.2,2.21 -31.39,2.21 -24.74,0 -44.18,-5.3 -58.32,-15.87 -14.14,-10.58 -22.39,-28.21 -24.73,-52.88 h -125.01 c 1.76,29.37 9.11,53.77 22.04,73.16" /><path
         id="path28"
         style="fill:#231f20;fill-opacity:1;fill-rule:nonzero;stroke:none"
         d="m 1706.59,1080.8 v 83.75 h 74.96 v 35.28 c 0,40.57 12.62,73.78 37.85,99.66 25.24,25.87 63.39,38.81 114.49,38.81 11.17,0 22.34,-0.47 33.51,-1.41 11.17,-0.94 22.04,-1.72 32.63,-2.34 v -93.13 c -14.7,1.66 -29.98,2.5 -45.86,2.5 -17.05,0 -29.25,-3.97 -36.59,-11.9 -7.36,-7.94 -11.03,-21.32 -11.03,-40.13 v -27.34 h 86.43 v -83.75 h -86.43 V 708.922 h -125 V 1080.8 h -74.96" /><path
         id="path30"
         style="fill:#231f20;fill-opacity:1;fill-rule:nonzero;stroke:none"
         d="m 2305.57,1058.01 c -14.99,16.44 -37.78,24.66 -68.34,24.66 -19.99,0 -36.6,-3.38 -49.83,-10.13 -13.23,-6.75 -23.82,-15.11 -31.75,-25.09 -7.94,-9.98 -13.52,-20.56 -16.75,-31.71 -3.25,-11.16 -5.15,-21.138 -5.74,-29.939 h 203.72 c -5.88,31.699 -16.32,55.769 -31.31,72.209 z M 2164.02,818.16 c 18.81,-18.238 45.86,-27.359 81.15,-27.359 25.27,0 47.03,6.281 65.25,18.84 18.22,12.57 29.39,25.871 33.52,39.91 h 110.23 c -17.64,-54.66 -44.69,-93.742 -81.13,-117.25 -36.46,-23.5 -80.55,-35.25 -132.29,-35.25 -35.86,0 -68.18,5.738 -96.97,17.199 -28.79,11.469 -53.16,27.801 -73.12,48.969 -19.96,21.172 -35.36,46.461 -46.22,75.883 -10.86,29.41 -16.28,61.757 -16.28,97.07 0,34.109 5.57,65.868 16.72,95.278 11.16,29.41 27,54.85 47.54,76.33 20.54,21.46 45.06,38.38 73.56,50.73 28.49,12.35 60.08,18.54 94.77,18.54 38.8,0 72.61,-7.5 101.42,-22.48 28.81,-14.99 52.47,-35.12 70.98,-60.4 18.52,-25.27 31.9,-54.06 40.13,-86.38 8.23,-32.329 11.17,-66.118 8.82,-101.368 h -328.94 c 1.76,-40.602 12.05,-70.024 30.86,-88.262" /><path
         id="path32"
         style="fill:#231f20;fill-opacity:1;fill-rule:nonzero;stroke:none"
         d="m 2333.27,1346.56 v -8.21 h -35.35 v -93.12 h -9.69 v 93.12 h -35.2 v 8.21 h 80.24" /><path
         id="path34"
         style="fill:#231f20;fill-opacity:1;fill-rule:nonzero;stroke:none"
         d="m 2353.82,1346.56 35.09,-88.85 34.95,88.85 h 14.2 v -101.33 h -9.69 v 87.56 h -0.28 l -34.64,-87.56 h -9.08 l -34.78,87.56 h -0.28 v -87.56 h -9.69 v 101.33 h 14.2" /><path
         id="path36"
         style="fill:#fff200;fill-opacity:1;fill-rule:nonzero;stroke:none"
         d="m 1328.55,418.191 c 8.58,0 15.01,1.899 19.3,5.7 4.29,3.808 6.44,10 6.44,18.558 0,8.25 -2.15,14.231 -6.44,17.961 -4.29,3.731 -10.72,5.59 -19.3,5.59 h -40.98 v -47.809 z m 13.37,76.868 c 7.64,0 14.52,-1.227 20.64,-3.688 6.12,-2.461 11.38,-5.832 15.75,-10.121 4.38,-4.281 7.72,-9.238 10.02,-14.879 2.3,-5.633 3.46,-11.699 3.46,-18.211 0,-10 -2.11,-18.648 -6.33,-25.949 -4.22,-7.301 -11.11,-12.859 -20.67,-16.672 v -0.48 c 4.61,-1.27 8.43,-3.219 11.45,-5.84 3.03,-2.617 5.49,-5.719 7.39,-9.297 1.91,-3.59 3.3,-7.512 4.17,-11.813 0.88,-4.3 1.48,-8.589 1.8,-12.89 0.16,-2.699 0.31,-5.879 0.47,-9.539 0.16,-3.649 0.44,-7.391 0.84,-11.211 0.4,-3.821 1.03,-7.43 1.9,-10.848 0.88,-3.422 2.19,-6.332 3.94,-8.711 h -37.44 c -2.06,5.41 -3.34,11.84 -3.81,19.32 -0.48,7.469 -1.19,14.629 -2.15,21.481 -1.27,8.898 -3.97,15.418 -8.11,19.559 -4.13,4.128 -10.87,6.199 -20.25,6.199 h -37.42 V 324.91 h -37.5 v 170.149 h 91.85" /><path
         id="path38"
         style="fill:#fff200;fill-opacity:1;fill-rule:nonzero;stroke:none"
         d="M 1549.66,495.059 V 463.66 h -89.89 v -36.41 h 82.5 v -29.059 h -82.5 v -41.882 h 91.79 V 324.91 h -129.29 v 170.149 h 127.39" /><path
         id="path40"
         style="fill:#fff200;fill-opacity:1;fill-rule:nonzero;stroke:none"
         d="m 1677.72,326.281 c -8.1,-3.41 -16.29,-5.121 -24.56,-5.121 -13.03,0 -24.75,2.262 -35.16,6.781 -10.42,4.539 -19.2,10.77 -26.35,18.707 -7.16,7.942 -12.65,17.274 -16.45,27.993 -3.82,10.73 -5.73,22.281 -5.73,34.66 0,12.719 1.92,24.5 5.74,35.379 3.81,10.879 9.31,20.371 16.47,28.48 7.17,8.09 15.96,14.449 26.38,19.051 10.42,4.609 22.14,6.918 35.17,6.918 8.74,0 17.21,-1.309 25.39,-3.93 8.19,-2.617 15.58,-6.461 22.18,-11.539 6.59,-5.078 12.04,-11.351 16.33,-18.808 4.3,-7.461 6.91,-16.051 7.87,-25.743 h -35.76 c -2.23,9.532 -6.53,16.692 -12.88,21.461 -6.36,4.77 -14.07,7.149 -23.13,7.149 -8.43,0 -15.57,-1.629 -21.46,-4.879 -5.88,-3.258 -10.65,-7.629 -14.31,-13.11 -3.65,-5.48 -6.32,-11.718 -7.99,-18.699 -1.67,-6.992 -2.5,-14.222 -2.5,-21.679 0,-7.153 0.83,-14.102 2.5,-20.852 1.67,-6.75 4.33,-12.82 7.98,-18.219 3.65,-5.402 8.42,-9.73 14.3,-12.992 5.88,-3.258 13.03,-4.879 21.44,-4.879 12.39,0 21.96,3.121 28.7,9.371 6.76,6.25 10.69,15.309 11.8,27.188 h -37.67 v 27.972 h 71.58 v -91.953 h -23.88 l -3.82,19.313 c -6.68,-8.59 -14.07,-14.602 -22.18,-18.02" /><path
         id="path42"
         style="fill:#fff200;fill-opacity:1;fill-rule:nonzero;stroke:none"
         d="M 1795.34,495.219 V 324.91 h -37.5 v 170.309 h 37.5" /><path
         id="path44"
         style="fill:#fff200;fill-opacity:1;fill-rule:nonzero;stroke:none"
         d="m 1856.91,366.832 c 2.07,-3.973 4.81,-7.191 8.23,-9.66 3.41,-2.461 7.43,-4.281 12.03,-5.481 4.61,-1.191 9.37,-1.781 14.3,-1.781 3.33,0 6.91,0.27 10.73,0.828 3.82,0.551 7.39,1.633 10.72,3.223 3.34,1.59 6.12,3.769 8.34,6.551 2.23,2.789 3.34,6.32 3.34,10.609 0,4.609 -1.47,8.34 -4.4,11.211 -2.95,2.848 -6.8,5.227 -11.57,7.148 -4.76,1.899 -10.15,3.571 -16.19,5 -6.03,1.43 -12.16,3.02 -18.35,4.77 -6.35,1.582 -12.55,3.531 -18.58,5.832 -6.04,2.309 -11.44,5.297 -16.19,8.949 -4.77,3.649 -8.63,8.219 -11.57,13.711 -2.94,5.477 -4.4,12.11 -4.4,19.899 0,8.738 1.86,16.328 5.6,22.769 3.73,6.43 8.61,11.789 14.64,16.082 6.04,4.297 12.87,7.469 20.49,9.528 7.62,2.07 15.25,3.109 22.86,3.109 8.9,0 17.44,-1 25.61,-2.981 8.18,-1.988 15.44,-5.207 21.8,-9.648 6.35,-4.441 11.39,-10.129 15.12,-17.039 3.73,-6.91 5.6,-15.301 5.6,-25.152 h -36.25 c -0.32,5.089 -1.39,9.3 -3.21,12.64 -1.82,3.34 -4.24,5.961 -7.25,7.871 -3.02,1.899 -6.47,3.25 -10.35,4.051 -3.89,0.789 -8.13,1.188 -12.73,1.188 -3,0 -6.02,-0.321 -9.03,-0.95 -3.02,-0.64 -5.75,-1.75 -8.2,-3.339 -2.46,-1.59 -4.49,-3.579 -6.08,-5.961 -1.58,-2.379 -2.37,-5.411 -2.37,-9.059 0,-3.34 0.63,-6.051 1.9,-8.109 1.27,-2.071 3.77,-3.981 7.5,-5.731 3.74,-1.75 8.9,-3.5 15.49,-5.25 6.59,-1.738 15.22,-3.969 25.85,-6.672 3.18,-0.636 7.59,-1.789 13.22,-3.457 5.64,-1.672 11.24,-4.34 16.8,-7.992 5.56,-3.66 10.36,-8.539 14.42,-14.668 4.05,-6.121 6.07,-13.949 6.07,-23.492 0,-7.797 -1.51,-15.02 -4.53,-21.699 -3.02,-6.68 -7.51,-12.442 -13.47,-17.301 -5.97,-4.848 -13.36,-8.617 -22.18,-11.328 -8.81,-2.699 -19.03,-4.051 -30.63,-4.051 -9.38,0 -18.48,1.148 -27.3,3.469 -8.81,2.301 -16.61,5.929 -23.36,10.871 -6.75,4.93 -12.11,11.219 -16.09,18.851 -3.97,7.629 -5.89,16.688 -5.72,27.188 h 36.25 c 0,-5.719 1.03,-10.57 3.09,-14.547" /><path
         id="path46"
         style="fill:#fff200;fill-opacity:1;fill-rule:nonzero;stroke:none"
         d="m 1969.61,463.66 v 31.399 h 139.55 V 463.66 h -51.03 V 324.91 h -37.5 v 138.75 h -51.02" /><path
         id="path48"
         style="fill:#fff200;fill-opacity:1;fill-rule:nonzero;stroke:none"
         d="M 2256.1,495.059 V 463.66 h -89.89 v -36.41 h 82.5 v -29.059 h -82.5 v -41.882 h 91.8 V 324.91 h -129.3 v 170.149 h 127.39" /><path
         id="path50"
         style="fill:#fff200;fill-opacity:1;fill-rule:nonzero;stroke:none"
         d="m 2361.74,418.191 c 8.57,0 15.01,1.899 19.3,5.7 4.28,3.808 6.43,10 6.43,18.558 0,8.25 -2.15,14.231 -6.43,17.961 -4.29,3.731 -10.73,5.59 -19.3,5.59 h -40.99 v -47.809 z m 13.37,76.868 c 7.62,0 14.51,-1.227 20.63,-3.688 6.13,-2.461 11.37,-5.832 15.74,-10.121 4.38,-4.281 7.72,-9.238 10.03,-14.879 2.31,-5.633 3.46,-11.699 3.46,-18.211 0,-10 -2.11,-18.648 -6.33,-25.949 -4.22,-7.301 -11.1,-12.859 -20.66,-16.672 v -0.48 c 4.61,-1.27 8.43,-3.219 11.44,-5.84 3.02,-2.617 5.49,-5.719 7.4,-9.297 1.91,-3.59 3.3,-7.512 4.18,-11.813 0.87,-4.3 1.46,-8.589 1.77,-12.89 0.17,-2.699 0.33,-5.879 0.48,-9.539 0.17,-3.649 0.44,-7.391 0.84,-11.211 0.4,-3.821 1.04,-7.43 1.91,-10.848 0.88,-3.422 2.18,-6.332 3.93,-8.711 h -37.43 c -2.07,5.41 -3.34,11.84 -3.82,19.32 -0.48,7.469 -1.2,14.629 -2.15,21.481 -1.27,8.898 -3.97,15.418 -8.1,19.559 -4.13,4.128 -10.88,6.199 -20.26,6.199 h -37.42 V 324.91 h -37.5 v 170.149 h 91.86" /></g></g></svg>