<?xml version="1.0" encoding="UTF-8" standalone="no" ?>
<!DOCTYPE svg PUBLIC "-//W3C//DTD SVG 1.1//EN" "http://www.w3.org/Graphics/SVG/1.1/DTD/svg11.dtd">
<svg xmlns="http://www.w3.org/2000/svg" xmlns:xlink="http://www.w3.org/1999/xlink" version="1.1" width="600" height="450" viewBox="0 0 600 450" xml:space="preserve">
<desc>Created with Fabric.js 4.6.0</desc>
<defs>
</defs>
<g transform="matrix(0.99 0 0 0.99 296.5 35)" id="6QgSeVtfpG8sVLM61L0cv"  >
<path style="stroke: none; stroke-width: 1; stroke-dasharray: none; stroke-linecap: butt; stroke-dashoffset: 0; stroke-linejoin: miter; stroke-miterlimit: 4; fill: rgb(57,91,158); fill-rule: evenodd; opacity: 1;" vector-effect="non-scaling-stroke"  transform=" translate(-351.3, -366.97)" d="M 185.941 369.992 L 516.659 369.992 L 516.659 363.954 L 185.941 363.954 L 185.941 369.992 z" stroke-linecap="round" />
</g>
<g transform="matrix(0.99 0 0 0.97 296.5 59)" id="jKt62Udi0JmY8Kl-Ony52"  >
<path style="stroke: none; stroke-width: 1; stroke-dasharray: none; stroke-linecap: butt; stroke-dashoffset: 0; stroke-linejoin: miter; stroke-miterlimit: 4; fill: rgb(57,91,158); fill-rule: evenodd; opacity: 1;" vector-effect="non-scaling-stroke"  transform=" translate(-351.3, -391.08)" d="M 516.659 386.972 L 185.941 386.972 L 185.941 395.193 L 516.659 395.193 L 516.659 386.972 z" stroke-linecap="round" />
</g>
<g transform="matrix(0.99 0 0 0.99 296.5 81.5)" id="w6pYECp6o74e4aYAZuI2M"  >
<path style="stroke: none; stroke-width: 1; stroke-dasharray: none; stroke-linecap: butt; stroke-dashoffset: 0; stroke-linejoin: miter; stroke-miterlimit: 4; fill: rgb(57,91,158); fill-rule: evenodd; opacity: 1;" vector-effect="non-scaling-stroke"  transform=" translate(-351.3, -414.41)" d="M 516.659 409.878 L 185.941 409.878 L 185.941 418.949 L 516.659 418.949 L 516.659 409.878 z" stroke-linecap="round" />
</g>
<g transform="matrix(0.99 0 0 1.04 296.5 104)" id="qIcHycdqBN4WV-JMIsyKv"  >
<path style="stroke: none; stroke-width: 1; stroke-dasharray: none; stroke-linecap: butt; stroke-dashoffset: 0; stroke-linejoin: miter; stroke-miterlimit: 4; fill: rgb(57,91,158); fill-rule: evenodd; opacity: 1;" vector-effect="non-scaling-stroke"  transform=" translate(-351.3, -436.15)" d="M 516.659 431.336 L 185.941 431.336 L 185.941 440.973 L 516.659 440.973 L 516.659 431.336 z" stroke-linecap="round" />
</g>
<g transform="matrix(0.99 0 0 1.01 292 124.5)" id="pN8tg-0ebgK4sGfa7JNMD"  >
<path style="stroke: none; stroke-width: 1; stroke-dasharray: none; stroke-linecap: butt; stroke-dashoffset: 0; stroke-linejoin: miter; stroke-miterlimit: 4; fill: rgb(57,91,158); fill-rule: evenodd; opacity: 1;" vector-effect="non-scaling-stroke"  transform=" translate(-344.68, -457.16)" d="M 478.754 462.629 C 486.95 458.923 495.173 455.276 503.422 451.687 L 185.941 451.687 L 185.941 462.629 L 478.754 462.629 z" stroke-linecap="round" />
</g>
<g transform="matrix(0.99 0 0 1.03 267.5 146)" id="JcChS4DCfVNRssNthqtDf"  >
<path style="stroke: none; stroke-width: 1; stroke-dasharray: none; stroke-linecap: butt; stroke-dashoffset: 0; stroke-linejoin: miter; stroke-miterlimit: 4; fill: rgb(57,91,158); fill-rule: evenodd; opacity: 1;" vector-effect="non-scaling-stroke"  transform=" translate(-321.62, -478.3)" d="M 432.977 484.107 C 437.819 481.734 442.709 479.376 447.656 477.026 C 450.869 475.503 454.086 473.99 457.306 472.485 L 185.941 472.485 L 185.941 484.107 L 432.977 484.107 z" stroke-linecap="round" />
</g>
<g transform="matrix(0.98 0 0 0.99 454.5 147)" id="HP60i1OEPXLV2_scWpQ7j"  >
<path style="stroke: none; stroke-width: 1; stroke-dasharray: none; stroke-linecap: butt; stroke-dashoffset: 0; stroke-linejoin: miter; stroke-miterlimit: 4; fill: rgb(57,91,158); fill-rule: evenodd; opacity: 1;" vector-effect="non-scaling-stroke"  transform=" translate(-510, -480.08)" d="M 516.659 476.05 C 512.206 478.711 507.769 481.397 503.346 484.107 L 516.659 484.107 L 516.659 476.05 z" stroke-linecap="round" />
</g>
<g transform="matrix(0.99 0 0 1.02 249 166)" id="AWjGpbDkkFWjZDNwM9M-f"  >
<path style="stroke: none; stroke-width: 1; stroke-dasharray: none; stroke-linecap: butt; stroke-dashoffset: 0; stroke-linejoin: miter; stroke-miterlimit: 4; fill: rgb(57,91,158); fill-rule: evenodd; opacity: 1;" vector-effect="non-scaling-stroke"  transform=" translate(-301.33, -499.11)" d="M 390.539 505.996 C 399.193 501.29 407.9 496.714 416.729 492.22 L 185.941 492.22 L 185.941 505.996 L 390.539 505.996 z" stroke-linecap="round" />
</g>
<g transform="matrix(0.98 0 0 1.02 437.5 166)" id="Cj7spXrWeg_sSBQIJIR5A"  >
<path style="stroke: none; stroke-width: 1; stroke-dasharray: none; stroke-linecap: butt; stroke-dashoffset: 0; stroke-linejoin: miter; stroke-miterlimit: 4; fill: rgb(57,91,158); fill-rule: evenodd; opacity: 1;" vector-effect="non-scaling-stroke"  transform=" translate(-492.71, -499.11)" d="M 490.269 492.22 C 483.061 496.747 475.894 501.339 468.768 505.996 L 516.659 505.996 L 516.659 492.22 L 490.269 492.22 z" stroke-linecap="round" />
</g>
<g transform="matrix(0.99 0 0 1.02 226.5 187)" id="bSDXnGrv5lg_WMHVXVhgM"  >
<path style="stroke: none; stroke-width: 1; stroke-dasharray: none; stroke-linecap: butt; stroke-dashoffset: 0; stroke-linejoin: miter; stroke-miterlimit: 4; fill: rgb(57,91,158); fill-rule: evenodd; opacity: 1;" vector-effect="non-scaling-stroke"  transform=" translate(-280.56, -520.41)" d="M 354.948 526.298 C 356.02 525.656 357.094 525.017 358.169 524.38 C 363.847 521.015 369.51 517.734 375.18 514.523 L 185.941 514.523 L 185.941 526.298 L 354.948 526.298 z" stroke-linecap="round" />
</g>
<g transform="matrix(0.99 0 0 1.02 422.5 187)" id="SUkELSJUW0pNUj2K_FxtQ"  >
<path style="stroke: none; stroke-width: 1; stroke-dasharray: none; stroke-linecap: butt; stroke-dashoffset: 0; stroke-linejoin: miter; stroke-miterlimit: 4; fill: rgb(57,91,158); fill-rule: evenodd; opacity: 1;" vector-effect="non-scaling-stroke"  transform=" translate(-477.63, -520.41)" d="M 455.88 514.523 C 453.808 515.91 451.74 517.302 449.675 518.7 C 445.966 521.209 442.273 523.742 438.597 526.298 L 516.658 526.298 L 516.658 514.523 L 455.88 514.523 z" stroke-linecap="round" />
</g>
<g transform="matrix(0.99 0 0 0.98 210.5 207.5)" id="l5A4QoiLq3lT6oDrSn8-Y"  >
<path style="stroke: none; stroke-width: 1; stroke-dasharray: none; stroke-linecap: butt; stroke-dashoffset: 0; stroke-linejoin: miter; stroke-miterlimit: 4; fill: rgb(57,91,158); fill-rule: evenodd; opacity: 1;" vector-effect="non-scaling-stroke"  transform=" translate(-264.1, -541.74)" d="M 318.943 549.396 C 326.612 544.14 334.385 539.036 342.256 534.089 L 185.941 534.089 L 185.941 549.396 L 318.943 549.396 z" stroke-linecap="round" />
</g>
<g transform="matrix(0.99 0 0 0.98 406.5 207.5)" id="nrWeKTIAhByEId3jc46Bk"  >
<path style="stroke: none; stroke-width: 1; stroke-dasharray: none; stroke-linecap: butt; stroke-dashoffset: 0; stroke-linejoin: miter; stroke-miterlimit: 4; fill: rgb(57,91,158); fill-rule: evenodd; opacity: 1;" vector-effect="non-scaling-stroke"  transform=" translate(-461.68, -541.74)" d="M 427.551 534.089 C 420.537 539.105 413.587 544.207 406.701 549.396 L 516.659 549.396 L 516.659 534.089 L 427.551 534.089 z" stroke-linecap="round" />
</g>
<g transform="matrix(0.99 0 0 1 195.5 228.5)" id="GM5mYsiBsl4_RNxojJj19"  >
<path style="stroke: none; stroke-width: 1; stroke-dasharray: none; stroke-linecap: butt; stroke-dashoffset: 0; stroke-linejoin: miter; stroke-miterlimit: 4; fill: rgb(57,91,158); fill-rule: evenodd; opacity: 1;" vector-effect="non-scaling-stroke"  transform=" translate(-249.45, -562.45)" d="M 186.525 553.947 C 192.346 555.827 198.136 557.802 203.892 559.873 C 213.085 563.099 222.104 566.798 230.912 570.955 L 289.582 570.955 C 297.003 565.053 304.606 559.381 312.382 553.947 L 186.525 553.947 z" stroke-linecap="round" />
</g>
<g transform="matrix(0.99 0 0 1 394 228.5)" id="KxtCyxEPYlcbJ1RKu1SzO"  >
<path style="stroke: none; stroke-width: 1; stroke-dasharray: none; stroke-linecap: butt; stroke-dashoffset: 0; stroke-linejoin: miter; stroke-miterlimit: 4; fill: rgb(57,91,158); fill-rule: evenodd; opacity: 1;" vector-effect="non-scaling-stroke"  transform=" translate(-447.87, -562.45)" d="M 400.709 553.947 C 393.425 559.52 386.216 565.189 379.083 570.955 L 516.659 570.955 L 516.659 553.947 L 400.709 553.947 z" stroke-linecap="round" />
</g>
<g transform="matrix(0.99 0 0 1 163 312.5)" id="FYa7ApH4DyijJ7ftoACVT"  >
<path style="stroke: none; stroke-width: 1; stroke-dasharray: none; stroke-linecap: butt; stroke-dashoffset: 0; stroke-linejoin: miter; stroke-miterlimit: 4; fill: rgb(57,91,158); fill-rule: evenodd; opacity: 1;" vector-effect="non-scaling-stroke"  transform=" translate(-215.31, -646.84)" d="M 244.67 656.339 C 239.374 649.888 233.935 643.554 228.358 637.343 L 185.941 637.343 L 185.941 656.339 L 244.67 656.339 z" stroke-linecap="round" />
</g>
<g transform="matrix(0.99 0 0 1 349 312.5)" id="BU6BovZoT633ttRqIX_Zx"  >
<path style="stroke: none; stroke-width: 1; stroke-dasharray: none; stroke-linecap: butt; stroke-dashoffset: 0; stroke-linejoin: miter; stroke-miterlimit: 4; fill: rgb(57,91,158); fill-rule: evenodd; opacity: 1;" vector-effect="non-scaling-stroke"  transform=" translate(-402.44, -646.84)" d="M 305.961 637.343 C 299.938 643.57 294.025 649.903 288.222 656.339 L 516.658 656.339 L 516.658 637.343 L 305.961 637.343 z" stroke-linecap="round" />
</g>
<g transform="matrix(0.99 0 0 1 154 291.5)" id="iwDCJ9Ht2apBWYAH9OSY0"  >
<path style="stroke: none; stroke-width: 1; stroke-dasharray: none; stroke-linecap: butt; stroke-dashoffset: 0; stroke-linejoin: miter; stroke-miterlimit: 4; fill: rgb(57,91,158); fill-rule: evenodd; opacity: 1;" vector-effect="non-scaling-stroke"  transform=" translate(-206.07, -625.45)" d="M 226.192 634.945 C 220.275 628.487 214.014 622.149 207.527 615.949 L 185.941 615.949 L 185.941 634.945 L 226.192 634.945 z" stroke-linecap="round" />
</g>
<g transform="matrix(0.99 0 0 1 359 291.5)" id="cxIMG6Gadk3C2yF9_KPuM"  >
<path style="stroke: none; stroke-width: 1; stroke-dasharray: none; stroke-linecap: butt; stroke-dashoffset: 0; stroke-linejoin: miter; stroke-miterlimit: 4; fill: rgb(57,91,158); fill-rule: evenodd; opacity: 1;" vector-effect="non-scaling-stroke"  transform=" translate(-412.47, -625.45)" d="M 327.513 615.949 C 320.99 622.164 314.582 628.497 308.29 634.945 L 516.658 634.945 L 516.658 615.949 L 327.513 615.949 z" stroke-linecap="round" />
</g>
<g transform="matrix(1 0 0 0.99 144 272)" id="piBH_scWPusBIvPX3Yh8H"  >
<path style="stroke: none; stroke-width: 1; stroke-dasharray: none; stroke-linecap: butt; stroke-dashoffset: 0; stroke-linejoin: miter; stroke-miterlimit: 4; fill: rgb(57,91,158); fill-rule: evenodd; opacity: 1;" vector-effect="non-scaling-stroke"  transform=" translate(-195.98, -605.46)" d="M 206.027 614.52 C 199.506 608.34 192.771 602.297 185.941 596.408 L 185.941 614.52 L 206.027 614.52 z" stroke-linecap="round" />
</g>
<g transform="matrix(0.99 0 0 1 369 270.5)" id="3aQXI7Rk89VhNfxzKEdnp"  >
<path style="stroke: none; stroke-width: 1; stroke-dasharray: none; stroke-linecap: butt; stroke-dashoffset: 0; stroke-linejoin: miter; stroke-miterlimit: 4; fill: rgb(57,91,158); fill-rule: evenodd; opacity: 1;" vector-effect="non-scaling-stroke"  transform=" translate(-422.84, -605.02)" d="M 349.839 595.524 C 342.777 601.725 335.835 608.059 329.016 614.52 L 516.658 614.52 L 516.658 595.524 L 349.839 595.524 z" stroke-linecap="round" />
</g>
<g transform="matrix(0.98 0 0 0.99 209 249)" id="Lc4HpHCblIcFAaVhqavJG"  >
<path style="stroke: none; stroke-width: 1; stroke-dasharray: none; stroke-linecap: butt; stroke-dashoffset: 0; stroke-linejoin: miter; stroke-miterlimit: 4; fill: rgb(57,91,158); fill-rule: evenodd; opacity: 1;" vector-effect="non-scaling-stroke"  transform=" translate(-261.44, -582.98)" d="M 236.969 573.902 C 237.318 574.077 237.667 574.252 238.015 574.428 C 247.332 579.162 257.311 585.455 264.862 592.064 C 265.039 591.903 265.217 591.746 265.398 591.591 C 272.064 585.492 278.906 579.594 285.915 573.902 L 236.969 573.902 z" stroke-linecap="round" />
</g>
<g transform="matrix(0.99 0 0 1 381 249.5)" id="-Xj8NLkGoQn3yNmxq5ieV"  >
<path style="stroke: none; stroke-width: 1; stroke-dasharray: none; stroke-linecap: butt; stroke-dashoffset: 0; stroke-linejoin: miter; stroke-miterlimit: 4; fill: rgb(57,91,158); fill-rule: evenodd; opacity: 1;" vector-effect="non-scaling-stroke"  transform=" translate(-434.75, -583.4)" d="M 375.453 573.902 C 369.6 578.677 363.798 583.516 358.049 588.42 C 356.308 589.905 354.573 591.397 352.846 592.898 L 516.658 592.898 L 516.658 573.902 L 375.453 573.902 z" stroke-linecap="round" />
</g>
<g transform="matrix(0 0 NaN NaN 230 363)" id="ndEY8rCsuvKSNH0y49qWu"  >
<path style="stroke: none; stroke-width: 1; stroke-dasharray: none; stroke-linecap: butt; stroke-dashoffset: 0; stroke-linejoin: miter; stroke-miterlimit: 4; fill: rgb(57,91,158); fill-rule: evenodd; opacity: 1;" vector-effect="non-scaling-stroke"  transform=" translate(-269.72, -676.76)" d="M 269.724 676.764 C 269.723 676.764 269.724 676.764 269.724 676.764 z" stroke-linecap="round" />
</g>
<g transform="matrix(0 0 0 0 217 342)" id="QRHaCRepyi2UfXb7-AOg6"  >
<path style="stroke: none; stroke-width: 1; stroke-dasharray: none; stroke-linecap: butt; stroke-dashoffset: 0; stroke-linejoin: miter; stroke-miterlimit: 4; fill: rgb(57,91,158); fill-rule: evenodd; opacity: 1;" vector-effect="non-scaling-stroke"  transform=" translate(-269.72, -676.77)" d="M 269.723 676.765 C 269.719 676.767 269.715 676.77 269.712 676.772 C 269.715 676.77 269.719 676.767 269.723 676.765 z" stroke-linecap="round" />
</g>
<g transform="matrix(0 0 0 0 217 342)" id="7tPBbS-Jy9W71YTlPslle"  >
<path style="stroke: none; stroke-width: 1; stroke-dasharray: none; stroke-linecap: butt; stroke-dashoffset: 0; stroke-linejoin: miter; stroke-miterlimit: 4; fill: rgb(57,91,158); fill-rule: evenodd; opacity: 1;" vector-effect="non-scaling-stroke"  transform=" translate(-269.72, -676.76)" d="M 269.723 676.765 C 269.723 676.764 269.724 676.764 269.723 676.765 z" stroke-linecap="round" />
</g>
<g transform="matrix(0.99 0 0 0.99 327 205)" id="nBXQsQiaZEN46ePb0Uc9n"  >
<path style="stroke: none; stroke-width: 1; stroke-dasharray: none; stroke-linecap: butt; stroke-dashoffset: 0; stroke-linejoin: miter; stroke-miterlimit: 4; fill: rgb(205,54,57); fill-rule: evenodd; opacity: 1;" vector-effect="non-scaling-stroke"  transform=" translate(-380.62, -538.5)" d="M 635.57 406.617 C 392.193 526.207 300.917 634.464 268.945 671.53 C 265.916 674.495 264.526 674.272 262.041 671.041 C 225.636 623.721 202.104 600.943 125.33 542.207 C 125.213 542.121 125.095 542.036 124.977 541.952 C 124.987 541.958 123.681 541.064 123.69 541.072 C 123.253 540.652 122.671 539.712 124.52 540.306 C 124.599 540.331 124.679 540.356 124.759 540.381 C 163.523 552.307 232.539 567.868 263.906 597.304 C 264.337 597.708 264.75 598.133 265.145 598.572 C 266.024 597.194 267.211 596.092 268.402 594.99 C 357.306 512.673 518.026 448.458 629.76 405.58 C 632.059 404.698 635.766 402.781 637.328 403.584 C 638.759 404.319 637.791 405.525 635.57 406.617 z" stroke-linecap="round" />
</g>
<g transform="matrix(0.99 0 0 0.98 71.5 386)" id="CQS2U7AyzK0hTr_bykNcJ"  >
<path style="stroke: none; stroke-width: 1; stroke-dasharray: none; stroke-linecap: butt; stroke-dashoffset: 0; stroke-linejoin: miter; stroke-miterlimit: 4; fill: rgb(57,91,158); fill-rule: evenodd; opacity: 1;" vector-effect="non-scaling-stroke"  transform=" translate(-124.77, -720.32)" d="M 70.6591 752.896 L 70.6591 687.75 L 105.669 687.75 L 137.934 718.045 C 138.923 718.9 139.977 720.109 141.097 721.672 C 142.217 723.234 143.402 725.121 144.653 727.332 C 144.342 726.183 144.108 724.915 143.951 723.53 C 143.795 722.144 143.716 720.464 143.716 718.488 L 143.716 687.75 L 178.886 687.75 L 178.886 752.896 L 143.716 752.896 L 111.451 722.822 C 110.462 721.938 109.382 720.684 108.209 719.062 C 107.037 717.44 105.852 715.583 104.655 713.49 C 105.02 714.64 105.28 715.842 105.436 717.095 C 105.591 718.347 105.669 720.109 105.669 722.38 L 105.669 752.896 L 70.6591 752.896 z" stroke-linecap="round" />
</g>
<g transform="matrix(0.99 0 0 0.98 202.5 386)" id="KoTqyrk7gay3pAvBecI02"  >
<path style="stroke: none; stroke-width: 1; stroke-dasharray: none; stroke-linecap: butt; stroke-dashoffset: 0; stroke-linejoin: miter; stroke-miterlimit: 4; fill: rgb(57,91,158); fill-rule: evenodd; opacity: 1;" vector-effect="non-scaling-stroke"  transform=" translate(-256.4, -720.32)" d="M 244.736 730.607 L 267.926 730.607 L 256.448 708.05 L 244.736 730.607 z M 197.255 752.896 L 237.71 687.75 L 275.108 687.75 L 315.553 752.896 L 278.934 752.896 L 274.64 744.288 L 238.022 744.288 L 233.571 752.896 L 197.255 752.896 z" stroke-linecap="round" />
</g>
<g transform="matrix(0.99 0 0 0.98 332 386)" id="53jray41cuwbbl5p1jZze"  >
<path style="stroke: none; stroke-width: 1; stroke-dasharray: none; stroke-linecap: butt; stroke-dashoffset: 0; stroke-linejoin: miter; stroke-miterlimit: 4; fill: rgb(57,91,158); fill-rule: evenodd; opacity: 1;" vector-effect="non-scaling-stroke"  transform=" translate(-385.56, -720.32)" d="M 370.849 717.016 L 382.694 717.016 C 390.384 717.016 395.528 716.529 398.126 715.556 C 400.724 714.582 402.023 712.857 402.023 710.379 C 402.023 707.871 400.776 706.131 398.282 705.157 C 395.788 704.184 390.592 703.697 382.694 703.697 L 370.849 703.697 L 370.849 717.016 z M 333.921 752.896 L 333.921 687.75 L 381.215 687.75 C 391.677 687.75 399.965 688.097 406.08 688.79 C 412.196 689.483 417.309 690.597 421.421 692.13 C 426.73 694.165 430.685 696.687 433.288 699.695 C 435.891 702.703 437.192 706.271 437.192 710.4 C 437.192 717.686 433.391 723.267 425.788 727.145 C 418.186 731.024 407.225 732.963 392.905 732.963 L 370.849 732.963 L 370.849 752.896 L 333.921 752.896 z" stroke-linecap="round" />
</g>
<g transform="matrix(0.98 0 0 0.98 423.5 386)" id="askPgfEnXz8lwVp8xNcGL"  >
<path style="stroke: none; stroke-width: 1; stroke-dasharray: none; stroke-linecap: butt; stroke-dashoffset: 0; stroke-linejoin: miter; stroke-miterlimit: 4; fill: rgb(57,91,158); fill-rule: evenodd; opacity: 1;" vector-effect="non-scaling-stroke"  transform=" translate(-479.14, -720.32)" d="M 460.357 752.896 L 460.357 687.75 L 497.924 687.75 L 497.924 752.896 L 460.357 752.896 z" stroke-linecap="round" />
</g>
<g transform="matrix(0.99 0 0 0.98 516 386)" id="o4YEqwZalngG5Cec_l-L3"  >
<path style="stroke: none; stroke-width: 1; stroke-dasharray: none; stroke-linecap: butt; stroke-dashoffset: 0; stroke-linejoin: miter; stroke-miterlimit: 4; fill: rgb(57,91,158); fill-rule: evenodd; opacity: 1;" vector-effect="non-scaling-stroke"  transform=" translate(-570.89, -720.32)" d="M 552.422 752.896 L 552.422 704.875 L 519.33 704.875 L 519.33 687.75 L 622.441 687.75 L 622.441 704.875 L 589.35 704.875 L 589.35 752.896 L 552.422 752.896 z" stroke-linecap="round" />
</g>
</svg>