<?xml version="1.0" encoding="UTF-8" standalone="no"?>
<svg
   xmlns:dc="http://purl.org/dc/elements/1.1/"
   xmlns:cc="http://creativecommons.org/ns#"
   xmlns:rdf="http://www.w3.org/1999/02/22-rdf-syntax-ns#"
   xmlns:svg="http://www.w3.org/2000/svg"
   xmlns="http://www.w3.org/2000/svg"
   viewBox="0 0 638.66669 730.66669"
   height="730.66669"
   width="638.66669"
   xml:space="preserve"
   id="svg2"
   version="1.1"><metadata
     id="metadata8"><rdf:RDF><cc:Work
         rdf:about=""><dc:format>image/svg+xml</dc:format><dc:type
           rdf:resource="http://purl.org/dc/dcmitype/StillImage" /></cc:Work></rdf:RDF></metadata><defs
     id="defs6" /><g
     transform="matrix(1.3333333,0,0,-1.3333333,0,730.66667)"
     id="g10"><g
       transform="scale(0.1)"
       id="g12"><path
         id="path14"
         style="fill:#ffffff;fill-opacity:1;fill-rule:evenodd;stroke:none"
         d="M 2394.05,4847.89 4216.48,1654.84 c 259.74,-448.47 233.46,-1022.723 -546.3,-1022.723 -705.19,0 -2602.72,0 -2602.72,0 -719.335,0 -745.894,578.293 -526.249,972.613 157.148,283.23 1852.839,3243.16 1852.839,3243.16" /><path
         id="path16"
         style="fill:#007d45;fill-opacity:1;fill-rule:evenodd;stroke:none"
         d="M 2394.05,4586.48 4126.97,1551.9 c 197.73,-346.23 145.55,-786.615 -353.96,-786.615 -606.35,0.012 -2759.07,0 -2759.07,0 -498.307,0.012 -548.026,444.725 -351.62,788.645 237.657,416.11 1731.73,3032.54 1731.73,3032.55" /><path
         id="path18"
         style="fill:#c3e2c8;fill-opacity:1;fill-rule:evenodd;stroke:none"
         d="m 2665.31,3803.1 -270.99,465.01 -766.34,-1356.6 c -133.2,-229.86 -185.98,-444.25 -123.34,-716.32 98.09,-426.06 489.2,-703.04 873.06,-703.04 394.03,0 746.64,238.67 875.46,607.23 102.26,292.47 49.16,562.71 -122.06,859.48 l -94.18,-163.52 c 102.97,-224.71 137.04,-398.13 75.28,-603.48 -100.77,-335.17 -404.65,-538.56 -717.88,-538.56 -263.16,0.01 -541.44,144.9 -677.92,425.69 -129.21,265.82 -88.42,522.71 54.83,755.89 l 627.89,1109.31 182.9,-299.52 83.29,158.43" /><path
         id="path20"
         style="fill:#c3e2c8;fill-opacity:1;fill-rule:evenodd;stroke:none"
         d="m 2730.24,3688.2 73.11,-130.92 -537.51,-981.55 -250.97,458.69 72.76,133.13 178.21,-328.68 464.4,849.33" /><path
         id="path22"
         style="fill:#c3e2c8;fill-opacity:1;fill-rule:evenodd;stroke:none"
         d="m 2861.15,3453.59 75.14,-130.23 -670.45,-1223.98 -380.78,700.04 73.1,129.87 307.68,-565.73 595.31,1090.03" /><path
         id="path24"
         style="fill:#c3e2c8;fill-opacity:1;fill-rule:evenodd;stroke:none"
         d="m 2991.39,3220.01 75.15,-130.21 -739.52,-1353.19 -140.38,33.66 -426.73,779.28 c 7.03,18.77 11.32,29.26 19.4,47.6 16.32,36.99 27.05,56.6 47.25,92.28 l 439.28,-800.15 725.55,1330.73" /><path
         id="path26"
         style="fill:#ffffff;fill-opacity:1;fill-rule:evenodd;stroke:none"
         d="m 956.023,1112.7 c 0,-151.899 99.687,-230.903 295.317,-230.903 195.69,0 295.33,78.996 295.33,230.903 0,151.93 -99.64,230.92 -295.33,230.92 -195.63,0.01 -295.317,-78.99 -295.317,-230.92 z m 182.907,0 v 0 c 0,76.59 39.49,118.51 112.41,118.51 72.96,0 112.45,-41.93 112.45,-118.51 0,-76.55 -39.49,-117.88 -112.45,-117.88 -72.92,0.004 -112.41,41.33 -112.41,117.88" /><path
         id="path28"
         style="fill:#ffffff;fill-opacity:1;fill-rule:evenodd;stroke:none"
         d="m 1648.04,893.352 h 170.16 v 163.468 h 218.78 v 108.16 H 1818.2 v 59.55 h 268.01 v 107.54 H 1648.04 V 893.352" /><path
         id="path30"
         style="fill:#ffffff;fill-opacity:1;fill-rule:evenodd;stroke:none"
         d="m 2325.4,893.352 h 170.13 v 327.528 h 159.21 v 111.19 H 2166.81 V 1220.88 H 2325.4 V 893.352" /><path
         id="path32"
         style="fill:#ffffff;fill-opacity:1;fill-rule:evenodd;stroke:none"
         d="m 2752.73,893.352 h 479.47 v 113.008 h -309.34 v 57.75 h 238.82 v 108.16 h -238.82 v 52.26 h 294.74 v 107.54 H 2752.73 V 893.352" /><path
         id="path34"
         style="fill:#ffffff;fill-opacity:1;fill-rule:evenodd;stroke:none"
         d="m 3683.71,1147.97 h 194.48 c -6.11,125.16 -106.98,195.65 -290.49,195.65 -195.68,0.01 -295.33,-78.99 -295.33,-230.92 0,-151.899 99.65,-230.903 295.33,-230.903 175.02,0 274.05,63.812 291.68,184.133 h -196.25 c -10.36,-47.39 -43.17,-71.11 -95.43,-71.11 -72.91,0.004 -112.41,41.33 -112.41,117.88 0,76.59 39.48,118.51 112.41,118.51 57.12,0 90.56,-29.17 96.01,-83.24" /></g></g></svg>